<svg xmlns="http://www.w3.org/2000/svg" width="424" height="424" viewBox="0 0 424 424">
  <defs>
    <linearGradient id="fa-func-a" x1="212" y1="423.99" x2="212" y2="-.01" gradientUnits="userSpaceOnUse">
      <stop offset="0" stop-color="#f58342"/>
      <stop offset=".15" stop-color="#f58545" stop-opacity=".99"/>
      <stop offset=".28" stop-color="#f68a4d" stop-opacity=".94"/>
      <stop offset=".4" stop-color="#f6935b" stop-opacity=".87"/>
      <stop offset=".52" stop-color="#f7a06e" stop-opacity=".77"/>
      <stop offset=".64" stop-color="#f9b087" stop-opacity=".63"/>
      <stop offset=".75" stop-color="#fac5a6" stop-opacity=".47"/>
      <stop offset=".87" stop-color="#fcddcb" stop-opacity=".28"/>
      <stop offset=".97" stop-color="#fef8f4" stop-opacity=".06"/>
      <stop offset="1" stop-color="#fff" stop-opacity="0"/>
    </linearGradient>
    <linearGradient id="fa-func-b" x1="25.87" y1="330.11" x2="62.77" y2="330.11" gradientUnits="userSpaceOnUse">
      <stop offset="0" stop-color="#005d70"/>
      <stop offset="1" stop-color="#003f5e"/>
    </linearGradient>
  </defs>
  <path d="M285.07 0C215.5 0 184.4 114.61 144.85 144.3S0 174.15 0 266.36 79.76 424 225.33 424 424 291.44 424 203.19 373.93 0 285.07 0z" opacity=".3" fill="url(#fa-func-a)"/>
  <rect x="104.92" y="68.73" width="148.06" height="45.37" rx="1" ry="1" fill="#ffbd7c"/>
  <circle cx="127.99" cy="91.42" r="5.94" fill="#db6435"/>
  <path fill="none" stroke="#db6435" stroke-miterlimit="10" stroke-width="3" d="M144.85 91.42h93.09m15.04 0h67.93"/>
  <path d="M308.42 224.45v198.22a1.28 1.28 0 0 1-1.2 1.34H50.68a1.27 1.27 0 0 1-1.2-1.34V224.45z" fill="#fff"/>
  <path d="M308.42 201.69v22.76H49.48v-22.76a2.54 2.54 0 0 1 2.4-2.67H306a2.55 2.55 0 0 1 2.42 2.67z" fill="#ffbd7c"/>
  <circle cx="65.16" cy="211.74" r="3.85" fill="#db6435"/>
  <circle cx="80.4" cy="211.74" r="3.85" fill="#db6435"/>
  <circle cx="95.64" cy="211.74" r="3.85" fill="#db6435"/>
  <path fill="#ffbd7c" d="M234.89 285.49v96.62H121.63V266.36h94.13l19.13 19.13z"/>
  <path fill="#f58342" d="M234.89 285.49h-19.13v-19.13l19.13 19.13z"/>
  <path fill="none" stroke="#db6435" stroke-miterlimit="10" stroke-width="3" d="M164.8 346.33l-22.1-22.09 22.1-22.1m26.92 44.19l22.1-22.09-22.1-22.1m-6.19-4.63l-13.74 53.46m6.47-84.14V133.01m194.13 156.13V144.3m-179.07 3.77l-15.06-15.06-15.06 15.06m177.68 176.18h-89.5m15.06-15.06l-15.06 15.06 15.06 15.06"/>
  <circle cx="372.39" cy="320.83" r="31.69" fill="#ffbd7c"/>
  <path fill="none" stroke="#db6435" stroke-miterlimit="10" stroke-width="3" d="M362.24 320.74l9.84 11.34 13.72-22.5"/>
  <path d="M64.84 421c-7.05 0-15.83-2.08-17.5-3.08a24 24 0 0 0 .66-10.63c-.54-3.46-2.17-8.32-3.83-13.73h12.46c.24 8 1 13.36 1.83 14.8 4.66 7.79 15.16 10.09 21 11.5h.12c.67.41-7.95 1.14-14.74 1.14z" fill="#ff927c"/>
  <path d="M47.4 341.5c-.86 2.88-17.39 31.91-26.56 48.27l-9.83-6c3-8.53 6.45-19.89 8.85-28.47 4.08-14.58 7.34-18.46 8.52-22.59s-5.07-28.43-7.06-39.37-1.9-22.7 0-26.64l24.53-.06S50.23 332 47.4 341.5z" fill="#003f5e"/>
  <path d="M25.16 419.86c-1.5 2.63-9.49-1.26-11.24-3s-10.5-15.63-11.33-18.34c.88-.79 1.93-1.73 3.07-2.9s3.22-5.91 5.35-11.88l9.83 6c-3.24 5.77-5.55 10-5.95 10.88-1.52 3.53 2.66 11.17 5.49 15.7a9.26 9.26 0 0 0 4.78 3.54z" fill="#ff927c"/>
  <path d="M29.72 422c-.85 1.56-5 2-11.32 2s-7.5-5.94-11.89-11.74c-3.27-4.33-6.65-8.64-6.51-10.34.09-1.07 1.08-2 2.59-3.4.83 2.71 9.58 16.58 11.33 18.33s9.74 5.64 11.24 3c2.64 1.01 5.06 1.23 4.56 2.15z" fill="#003f5e"/>
  <path d="M62.77 326.77c0 10.24-2.82 12.12-5 36.35-1.09 12-.34 22.54-.11 30.44H43.18A90.51 90.51 0 0 1 40 375c-1-11.69-.67-36.26-1.44-42.61s-12.64-44.81-12.64-59.55v-6.16h35.32c.69 20.44 1.5 50.88 1.53 60.09z" fill="url(#fa-func-b)"/>
  <path d="M65.54 423.78c-7.8 0-19 1.35-18.81-2.37a19.45 19.45 0 0 1 .61-3.54c1.67 1 10.45 3.08 17.5 3.08 6.79 0 14.6-.57 14.72-1.05 2.24.54 3.76 1 3.94 1.51 1.21 3.67-10.17 2.37-17.96 2.37z" fill="#003f5e"/>
  <path d="M133.94 199.12c-3.33-.33-6.66.78-6.33 2.33s6.12 1.56 5.57 4.5a.06.06 0 0 1-.08.06c-1.82-.46-7.54-1.2-10.19-2.14s-5-2.32-6.78-2.47c-.4 0-2.28 0-5 .22l-.16-7.88c9.26.69 17 1.35 18.19 1.49 2.66.33 13.33 2.33 14.55 3.11s-6.43 1.11-9.77.78z" fill="#ff927c"/>
  <path d="M111.14 201.62c-9.37.58-28.65 2.11-30.85 2.7-1.87.51-11.44 5.34-19.05 9.57a42.57 42.57 0 0 0-4.31-6.19c-3.64-2.74-13.43-6.51-19.35-8.33 11.14-2.48 31-7 40.85-7.33 5.31-.17 20.23.79 32.55 1.7z" fill="#00aea0"/>
  <circle cx="135.14" cy="281.91" r="20.23" fill="#f58342"/>
  <path fill="none" stroke="#fff" stroke-miterlimit="10" stroke-width="3" d="M135.14 271.42v20.98m10.49-10.49h-20.98"/>
  <path d="M128.07 272.06c-.06.55-3 .61-5 .06s-7.89-3.16-10.08-3c-1 .06-1.64 1.81-1.29 2.58s3.3 2.3 4.3 3.6a4.17 4.17 0 0 1 1 3.39c-.26.42-3.13-1.37-4.41-1.93a41.74 41.74 0 0 1-6-3.43c-.68-.64-4.32-5.9-7.16-7-.86-.32-2.8-1.14-5.28-2.21l3.94-8.78c7 4.12 14.5 8.32 15.52 8.61a59.74 59.74 0 0 1 7.47 3.71c1.03.57 7.05 3.85 6.99 4.4z" fill="#ff927c"/>
  <path d="M112.41 276.44s4.07-.53 4.72-1 2.67-2.23 2.94-3.55c.13-.59-1.36-4.33-2.48-6h-4.43c.6 1.07 3.06 4.2 3 5a9.56 9.56 0 0 1-1.23 2.57c-.36.48-3.75 1.76-2.52 2.98z" fill="#ff927c"/>
  <path d="M49.85 169.13l-5.51-1c2.33-4.15 4.78-7.56 4.7-11.51a5.42 5.42 0 0 1 .49.46c4.63 4.92 2.4 10.3.32 12.05z" fill="#003f5e"/>
  <path d="M48.48 207.13c-1.36-2.88-2.67-16.68-2.56-17.89s4.38-.55 6.75-2c1.77-1.06 1.07-3.53 1-4.43s.74-2.08.79-2.9-.2-2-.13-2.57 2.49-2 2.09-3.08-3.34-2.51-4.42-3.26-1.11-2.35-1.08-4.48-1.8-5.94-4-7.08c-4.33-2.27-18-2.71-21 8.61s2.75 15 5.95 17.19A9.4 9.4 0 0 1 36.2 194c-.34 3.32-1.16 12.42-1.16 12.42z" fill="#ff927c"/>
  <path d="M49.88 178.5a7.08 7.08 0 0 0 5.33 1.23" fill="none" stroke="#ef5c8a" stroke-miterlimit="10"/>
  <circle cx="49.82" cy="172.14" r=".68" fill="#003f5e" stroke="#003f5e" stroke-miterlimit="10"/>
  <path d="M50.42 166.8c-1.77.46-3.23 2.16-4.1 3.44" fill="none" stroke="#003f5e" stroke-miterlimit="10"/>
  <path d="M98.15 255.37l-3.94 8.78c-7.94-3.44-21.44-9.52-23.14-10.54-2.58-1.55-7-6.83-11.31-12.69.5 7.54 1.48 25.74 1.48 25.74l-42.7 1.6c.15-17.16 3.6-38.38 5.19-48.44a57.43 57.43 0 0 1 6.44-18.48l.29-.48c1-1.62 2-2.59 2.68-2.58a22.93 22.93 0 0 1 4.44 1.09c5.92 1.82 15.71 5.59 19.35 8.33a42.57 42.57 0 0 1 4.31 6.19c5.42 8.62 13.93 23.32 15.17 25.33 1.72 2.79 4.86 5.42 10.36 9.17 2.23 1.51 6.7 4.23 11.38 6.98z" fill="#00aea0"/>
  <path d="M49.13 156.69c.08 3.95-2.46 8-4.79 12.12-2.21 3.92-4.31 8.5-4.15 14.86s3 11.73 3.44 17.08-2.4 11.13-5 13.3c-3.63 3.07-8.68 5.73-12.82 3-8.67-5.73-.62-10.36-4.44-18.82-4.5-10 1.52-14 1.08-16.14s-7.62-8.74.7-20.57c7.06-10.06 20.91-9.37 25.98-4.83z" fill="#003f5e"/>
  <path d="M59.76 240.92c-4.57-6.25-9-13.14-10.67-16.86" fill="none" stroke="#00838c" stroke-miterlimit="10"/>
  <rect x="320.91" y="38.54" width="102.96" height="105.76" rx="2" ry="2" fill="#f58342"/>
  <path fill="none" stroke="#000" stroke-miterlimit="10" d="M380.42 85.94v-.01"/>
  <path d="M410.38 119.3a56.69 56.69 0 0 1-3.31 10.41c-.17 3.9-.33 7.22-.42 8.88-.12 2-.25 4-.37 5.71h-40.22c-.17-6.7-.38-18.32-.47-26.66-2.46 6.47-6 13.58-10.51 16-8.92 4.8-13.39-12.86-13.81-16.43a31.34 31.34 0 0 0-.63-3.32l7.34-2.25c1 2.15 2.38 4.62 3.76 7.14 3.42-7 7.15-18.49 11.12-23.18 1.92-2.27 13.57-5 23.7-5 6.05 0 21.13 2.71 23.69 7.7s1.46 15.28.13 21z" fill="#ffbd7c"/>
  <path d="M376.34 106.44c3.3 6.15 7.49 14.33 10.22 18.58 4.05 6.33 9.7 10.34 14.69 10.34 2.44 0 5.15-3 6.62-6.14m-24.66-27.78c6.43 7 15 16.5 16.43 18.83" fill="none" stroke="#f58342" stroke-miterlimit="10"/>
  <path d="M383.21 101.44l-6.87 5c-.81-1.47-3.52-7.06-4.1-7.36a23.6 23.6 0 0 1-2.6-1.34 4.71 4.71 0 0 0-3.36-.41s-.19.34.76.58 1.1 1.25.87 1.3a13.29 13.29 0 0 1-2.58-.07 1.65 1.65 0 0 1-1.08-.87 4.24 4.24 0 0 1-.58 0 2.72 2.72 0 0 1-1.45-1.1 2.22 2.22 0 0 1-1.52-.37 9 9 0 0 1-1.84-3c-.09-.39.41-.83 1.2-1.27-7.07 1.11-9.86.25-9.08-.35 1-.73 16.7-4.86 18-4.38s4.15 3.09 7.73 6.82c1.29 1.21 3.69 3.78 6.5 6.82z" fill="#ad4936"/>
  <path d="M398.31 118.47c.64-4.29 1.25-9.71 1.33-12.28" fill="none" stroke="#f58342" stroke-miterlimit="10"/>
  <path d="M364.26 90.57c-1.29.56-3.05 1.23-4.2 1.88m5.51.27c-1.33.71-4.54 2-4.32 2.74a6.25 6.25 0 0 0 1 1.67m2 1.14a3.1 3.1 0 0 1-.48-1.42c.05-.44 2.12-1.54 3.11-1.93" fill="none" stroke="#8c3c2c" stroke-miterlimit="10"/>
  <path d="M365.29 122.05c0-4.26.24-12.08.28-13.52" fill="none" stroke="#f58342" stroke-miterlimit="10"/>
  <path d="M351.6 102.29l-7.71 1.62a1.6 1.6 0 0 1-1.88-1.27l-3.93-20.24a1.6 1.6 0 0 1 1.27-1.88l7.71-1.63a1.6 1.6 0 0 1 1.88 1.27l3.93 20.25a1.6 1.6 0 0 1-1.27 1.88z" fill="#003f5e"/>
  <path d="M346.15 90.38l-.18.15M339.79 93a31.19 31.19 0 0 0-2.11 2.62m13.62-3.52a1.27 1.27 0 0 0-.32.3" fill="none" stroke="#000" stroke-miterlimit="10"/>
  <path d="M355.23 125.34c-1-2.1-2.88-6.53-4.09-8.75" fill="none" stroke="#f58342" stroke-miterlimit="10"/>
  <path d="M345.4 95.05c-.24.29-.47.57-.67.84m1.27-1.47l.22-.23m-.22.23l.22-.23" fill="none" stroke="#000" stroke-miterlimit="10"/>
  <path d="M345.4 95.05a7.61 7.61 0 0 1 .58-.63zm5.9-3c1.13-1.33 2-2.53 1.61-2.84-.69-.58-4.87 3.1-6.71 4.93 1.38-1.46 3-3 3.7-3.89s2.8-3.49 1.81-3.78c-.68-.2-3.47 2.09-5.36 3.68 1.23-1.09 3.87-3.61 3.22-4.19s-5.46 2.69-6.4 3.38a36.79 36.79 0 0 0-3.38 3.6c.26-2.79-.1-6.92-1.4-6.92-.57 0-1 3.4-1.45 5a16.44 16.44 0 0 0-.74 7c.2 1.86 3.07 10 4.44 15.78l7.34-2.25a15.61 15.61 0 0 1-1.74-5.18 12.88 12.88 0 0 1 1.83-6.91c.66-1.28 3.33-4.82 4.1-6.09.65-.98-.1-1.8-.87-1.27z" fill="#ad4936"/>
  <path d="M346.15 90.38l-.18.15c-.7.61-1.23 1.06-1.39 1.17a23.76 23.76 0 0 0-2.57 3m9.29-2.6c-1.47 1.74-3.43 3.71-3.85 4.18" fill="none" stroke="#8c3c2c" stroke-miterlimit="10"/>
  <path d="M381 94a36.32 36.32 0 0 0-.59-8 9.54 9.54 0 0 1-4 1.3c-2.91 0-5.31-2.11-6.7-4.73s-3-5-3.12-7.57-.08-2.77-.66-4.08-.77-4.09-.51-9a11.3 11.3 0 0 1 1.23-4.33c.54.25 1.26 2.1 4.83 2.54 5 .62 8.3-3.5 10-3s3.13 9.34 7.39 9.94c0 0 1.68 6.14 2.76 8.73a2.56 2.56 0 0 1-.11.24c-.86 1.75 1 14.26 1.37 16.46.78 4.27-11.98 3.5-11.89 1.5z" fill="#ad4936"/>
  <circle cx="377.44" cy="71.57" r="1.05" fill="#003f5e"/>
  <path d="M370 79.82s3.61 2.68 8.49-1" fill="none" stroke="#8c3c2c" stroke-miterlimit="10"/>
  <path d="M370.21 71.76a6.49 6.49 0 0 1 4.29-.19m7.63-.83l8.85-3.21" fill="none" stroke="#f58342" stroke-miterlimit="10"/>
  <path d="M376.76 76.14c-.78.91-1.76-.11-2.25.64s-2.87.86-3.29.28-1 .29-1.34-.42c-.46-.87.59-1.49.83-2.47a4.46 4.46 0 0 0-.83-3.5" fill="none" stroke="#8c3c2c" stroke-miterlimit="10"/>
  <circle cx="367.7" cy="72.6" r="1.05" fill="#003f5e"/>
  <path d="M391.64 75.75c-1.08-2.59-2.76-8.73-2.76-8.73-4.26-.6-5.68-9.41-7.39-9.94s-5 3.59-10 3c-3.57-.44-4.29-2.29-4.83-2.54 1.89-3.86 5.78-7.57 10.37-8.26 8.06-1.21 12.82 1.67 15.26 7.61s1.4 14.45-.65 18.86z" fill="#003f5e"/>
  <path d="M388.32 69.39s1-3.83 3.22-2.92 1.81 6.3-1.38 7z" fill="#ad4936"/>
  <circle cx="378.32" cy="71.57" r="3.82" fill="none" stroke="#f58342" stroke-miterlimit="10"/>
  <ellipse cx="367.23" cy="72.41" rx="3.03" ry="3.58" fill="none" stroke="#f58342" stroke-miterlimit="10"/>
  <path d="M380.42 85.94a21 21 0 0 0 5.8-4.45M348.56 91.8c-1.11 1.11-2.75 2.38-3.5 3.78" fill="none" stroke="#8c3c2c" stroke-miterlimit="10"/>
</svg>
